<?xml version="1.0" encoding="UTF-8"?>
<!DOCTYPE svg PUBLIC "-//W3C//DTD SVG 1.1//EN" "http://www.w3.org/Graphics/SVG/1.1/DTD/svg11.dtd">
<!-- Creator: CorelDRAW X7 -->
<svg xmlns="http://www.w3.org/2000/svg" xml:space="preserve" width="250px" height="250px" version="1.1" shape-rendering="geometricPrecision" text-rendering="geometricPrecision" image-rendering="optimizeQuality" fill-rule="evenodd" clip-rule="evenodd"
viewBox="0 0 195 195"
 xmlns:xlink="http://www.w3.org/1999/xlink">
 <defs>
   <clipPath id="id0">
    <path d="M98 0c54,0 97,44 97,98 0,54 -43,97 -97,97 -54,0 -98,-43 -98,-97 0,-54 44,-98 98,-98z"/>
   </clipPath>
 </defs>
 <g id="Layer_x0020_1">
  <metadata id="CorelCorpID_0Corel-Layer"/>
  <path fill="#1BD741" d="M98 0c54,0 97,44 97,98 0,54 -43,97 -97,97 -54,0 -98,-43 -98,-97 0,-54 44,-98 98,-98z"/>
  <g clip-path="url(#id0)">
   <g id="_2164594760816">
    <g>
     <path id="1" fill="white" d="M40 157c8,-2 17,-5 26,-7 11,-3 5,2 24,5 22,5 38,-3 51,-13l8 -8c8,-11 13,-20 14,-35 2,-37 -30,-68 -66,-65 -17,1 -28,7 -39,18 -16,17 -24,43 -13,68 3,6 4,4 2,11 -2,8 -5,18 -7,26z"/>
     <path fill="#1BD741" d="M55 142c7,-1 15,-6 21,-3 6,3 11,6 19,7 30,3 57,-20 57,-50 1,-29 -24,-53 -53,-52 -11,1 -20,4 -29,11 -19,14 -26,44 -12,67 3,5 -1,8 -3,20z"/>
     <path fill="white" d="M116 102c-2,3 -5,7 -6,8 -5,-1 -12,-5 -15,-7 -2,-2 -10,-11 -9,-14 3,-3 4,-2 6,-7l-6 -15c-4,-1 -7,-1 -10,1 -26,22 42,77 55,48 1,-2 2,-5 1,-7 -1,-1 -13,-7 -16,-7z"/>
    </g>
   </g>
  </g>
  <path fill="none" d="M98 0c54,0 97,44 97,98 0,54 -43,97 -97,97 -54,0 -98,-43 -98,-97 0,-54 44,-98 98,-98z"/>
 </g>
</svg>
